<?xml version="1.0" standalone="no"?>
<!DOCTYPE svg PUBLIC "-//W3C//DTD SVG 20010904//EN"
 "http://www.w3.org/TR/2001/REC-SVG-20010904/DTD/svg10.dtd">
<svg version="1.0" xmlns="http://www.w3.org/2000/svg"
 width="880.000000pt" height="880.000000pt" viewBox="0 0 880.000000 880.000000"
 preserveAspectRatio="xMidYMid meet">
<metadata>
Created by potrace 1.14, written by Peter Selinger 2001-2017
</metadata>
<g transform="translate(0.000000,880.000000) scale(0.100000,-0.100000)"
fill="#000000" stroke="none">
<path d="M5975 8765 c-3 -8 -8 -23 -12 -32 -8 -23 -12 -43 -15 -70 -1 -12 -5
-20 -9 -17 -12 7 -18 -23 -7 -34 8 -8 7 -13 -5 -18 -9 -3 -14 -10 -11 -15 3
-5 0 -9 -7 -9 -8 0 -8 -4 1 -15 11 -13 10 -14 -4 -9 -13 5 -17 2 -15 -12 3
-26 -27 -91 -34 -73 -3 8 -6 5 -6 -9 -1 -12 -7 -25 -15 -28 -8 -3 -13 -16 -12
-28 2 -19 -1 -22 -18 -19 -17 4 -18 3 -6 -6 9 -6 10 -11 3 -11 -6 0 -15 -9
-18 -20 -4 -11 -11 -17 -17 -14 -7 5 -8 2 -3 -6 5 -8 -1 -20 -16 -32 -13 -11
-18 -16 -10 -12 9 5 12 3 7 -4 -4 -7 -14 -12 -22 -12 -8 0 -17 -8 -21 -17 -3
-10 -13 -27 -22 -37 -11 -14 -12 -17 -2 -11 10 6 12 4 6 -4 -4 -7 -15 -11 -25
-8 -12 3 -17 -1 -16 -17 0 -11 -1 -21 -4 -22 -11 -1 -66 -60 -62 -66 1 -4 -4
-5 -12 -2 -10 4 -16 1 -16 -10 0 -10 -6 -13 -15 -9 -10 3 -15 0 -13 -8 2 -8
-3 -13 -9 -12 -7 2 -13 -2 -13 -8 0 -6 -7 -9 -15 -5 -10 3 -15 -1 -15 -11 0
-9 -3 -13 -7 -10 -3 4 -13 1 -21 -6 -13 -10 -15 -9 -8 3 4 8 1 7 -7 -3 -13
-16 -15 -16 -21 -2 -6 18 -26 11 -26 -8 0 -7 4 -6 10 3 6 9 10 10 10 3 0 -16
-17 -26 -25 -14 -3 6 -13 7 -22 4 -9 -4 -14 -2 -11 3 4 5 -16 9 -43 9 -27 0
-49 -4 -49 -9 0 -6 -7 -1 -15 10 -15 19 -15 19 -8 -1 6 -17 4 -18 -8 -8 -12
10 -18 10 -28 0 -10 -9 -11 -8 -6 6 8 19 -10 24 -18 5 -4 -10 -6 -10 -6 0 -1
6 -6 12 -12 12 -5 0 -7 -6 -3 -12 5 -8 1 -7 -10 1 -10 8 -34 14 -53 13 -19 -2
-32 1 -30 5 3 5 -3 9 -13 9 -13 0 -16 -4 -9 -12 7 -8 2 -10 -16 -6 -15 2 -22
9 -18 16 5 8 3 8 -8 1 -21 -15 -55 -12 -51 5 3 12 1 12 -9 3 -13 -13 -42 -6
-33 8 3 5 -2 6 -10 3 -9 -3 -13 -11 -10 -18 3 -6 -2 -2 -10 8 -12 15 -16 16
-16 5 0 -12 -2 -12 -10 1 -9 13 -11 13 -20 0 -8 -13 -10 -12 -10 3 0 9 -4 17
-10 17 -5 0 -10 -5 -10 -12 0 -6 -7 -3 -15 8 -15 19 -15 19 -9 -1 5 -18 4 -18
-8 -4 -7 9 -28 15 -50 15 -20 -1 -36 1 -36 4 1 19 -4 21 -15 5 -11 -14 -16
-15 -22 -5 -6 9 -4 11 5 5 9 -5 11 -4 6 4 -6 9 -11 9 -24 -1 -13 -11 -14 -11
-7 1 6 11 3 13 -16 8 -13 -4 -28 -7 -32 -7 -5 0 -5 -5 -1 -12 5 -8 2 -9 -11
-4 -15 5 -16 4 -5 -9 11 -13 10 -14 -5 -8 -15 5 -17 3 -12 -11 4 -9 3 -15 -1
-12 -5 3 -16 -4 -25 -14 -11 -13 -12 -20 -4 -24 7 -2 4 -5 -6 -5 -10 -1 -22
-12 -27 -26 -5 -14 -14 -25 -20 -25 -5 0 -10 -7 -10 -16 0 -9 -5 -12 -12 -8
-8 5 -9 2 -5 -9 4 -10 2 -16 -6 -14 -7 1 -11 -6 -11 -15 1 -9 -4 -14 -11 -12
-7 3 -16 0 -21 -7 -5 -8 -3 -10 7 -4 8 4 2 -4 -13 -17 -15 -14 -25 -28 -22
-31 3 -3 -3 -12 -15 -19 -12 -7 -21 -22 -21 -33 0 -15 -3 -17 -9 -7 -6 10 -10
8 -14 -8 -3 -12 -10 -19 -15 -16 -6 3 -13 -1 -16 -10 -4 -10 -2 -13 6 -8 7 4
8 3 4 -4 -4 -7 -15 -12 -24 -12 -15 0 -15 -2 -2 -10 15 -9 14 -11 -12 -14 -7
-1 -12 -7 -10 -14 2 -11 -11 -17 -33 -12 -5 1 -5 -4 2 -11 9 -9 3 -20 -25 -46
-20 -20 -30 -32 -22 -28 8 5 5 -2 -8 -14 -12 -12 -20 -26 -17 -32 4 -5 1 -9
-4 -9 -6 0 -11 -4 -11 -10 0 -5 -13 -23 -30 -38 -16 -16 -26 -33 -22 -37 4 -5
2 -5 -5 -1 -6 3 -14 2 -18 -4 -4 -6 -11 -8 -16 -5 -5 3 -6 -1 -3 -9 4 -9 1
-16 -6 -16 -7 0 -23 -11 -35 -24 -13 -14 -25 -22 -28 -20 -3 3 -8 -4 -12 -17
-6 -17 -9 -19 -16 -8 -6 11 -9 8 -9 -8 0 -17 -4 -21 -17 -16 -12 5 -14 3 -8
-7 6 -10 4 -12 -9 -7 -9 4 -15 3 -12 -1 3 -5 -6 -16 -19 -26 -14 -10 -22 -24
-18 -30 4 -6 -2 -4 -12 4 -11 9 -16 10 -11 3 4 -8 2 -13 -4 -13 -6 0 -9 -4 -6
-8 3 -4 -11 -16 -29 -26 -19 -11 -33 -22 -30 -26 2 -4 -2 -7 -10 -7 -8 0 -12
5 -9 11 3 6 -2 2 -10 -8 -9 -11 -16 -17 -16 -13 0 4 -9 -2 -20 -13 -11 -11
-29 -21 -40 -21 -39 -3 -45 -5 -43 -17 2 -6 -4 -9 -12 -6 -9 4 -23 0 -32 -7
-12 -10 -15 -10 -9 -1 9 15 1 15 -24 0 -15 -10 -27 -10 -51 -1 -25 10 -29 10
-19 -2 9 -11 7 -12 -12 -8 -13 4 -26 11 -30 17 -5 7 -8 7 -8 1 0 -16 -43 -13
-58 4 -12 14 -13 14 -7 -3 6 -19 5 -19 -13 -3 -12 11 -26 15 -37 11 -11 -4
-16 -3 -12 2 3 5 -6 14 -19 21 -14 6 -21 7 -18 1 4 -7 0 -7 -12 0 -19 10 -26
12 -45 12 -5 0 -7 5 -4 10 3 6 -1 10 -9 10 -8 0 -18 9 -21 20 -3 11 -11 20
-16 20 -6 0 -7 5 -3 12 4 7 3 8 -4 4 -6 -4 -17 5 -26 21 -8 15 -17 27 -20 26
-14 -6 -27 -2 -22 6 3 5 -4 11 -15 14 -12 3 -18 10 -15 15 3 6 -4 8 -16 6 -13
-2 -17 -2 -11 2 10 4 10 9 -1 20 -8 8 -20 14 -26 14 -6 0 -8 5 -5 10 3 6 -4
10 -17 10 -18 0 -20 2 -8 10 13 9 8 14 -12 11 -4 0 -5 9 -3 20 3 15 0 19 -10
15 -9 -3 -12 0 -8 10 3 8 -1 14 -10 14 -11 0 -15 7 -12 20 2 11 0 18 -6 15 -5
-4 -9 -1 -9 5 0 7 -8 19 -18 28 -10 10 -11 13 -3 7 8 -5 2 7 -13 28 -16 20
-32 37 -36 37 -4 0 -10 9 -13 20 -3 11 -1 18 4 14 5 -3 6 2 3 10 -3 9 -10 13
-15 10 -5 -3 -9 4 -9 16 0 14 -4 19 -12 14 -8 -5 -9 -2 -5 10 5 12 0 19 -18
26 -14 5 -25 12 -25 15 0 4 6 3 13 -1 7 -4 9 -3 4 2 -5 5 -13 10 -18 10 -5 1
-13 2 -19 3 -5 0 -6 8 -3 18 4 10 2 14 -5 9 -6 -3 -13 -2 -17 4 -4 6 -12 7
-18 4 -7 -4 -9 -4 -5 1 9 9 -16 35 -33 35 -7 0 -9 3 -6 7 8 7 -54 48 -67 44
-5 -1 -4 5 4 13 11 14 9 16 -9 16 -11 0 -21 5 -21 11 0 5 -3 9 -8 7 -4 -2 -19
9 -34 24 -15 15 -24 28 -20 28 3 0 -3 6 -13 14 -11 8 -25 12 -32 9 -9 -4 -11
0 -6 13 5 13 3 16 -10 11 -11 -4 -17 -1 -17 8 0 8 -7 15 -16 15 -8 0 -13 3
-11 8 3 4 -1 12 -8 19 -11 10 -15 10 -19 0 -4 -7 -4 -2 -2 11 2 12 0 20 -4 17
-12 -8 -41 6 -34 16 5 9 -11 13 -31 9 -5 -1 -7 1 -3 5 8 9 -16 35 -32 35 -6 0
-8 5 -5 10 6 9 -8 14 -28 11 -5 -1 -7 2 -4 6 2 5 -4 16 -15 26 -10 9 -18 15
-18 12 0 -3 -13 8 -30 25 -16 16 -33 30 -37 30 -4 0 -16 10 -28 23 -11 13 -15
16 -10 7 9 -13 8 -13 -7 -1 -10 7 -18 20 -18 28 0 8 -5 11 -10 8 -6 -3 -10 -1
-10 5 0 6 -5 8 -12 4 -8 -5 -9 -2 -5 9 3 9 3 16 -1 16 -23 -4 -42 3 -42 15 0
8 -7 17 -16 20 -12 5 -14 3 -8 -7 5 -7 1 -5 -8 6 -10 10 -22 16 -28 12 -6 -4
-9 -1 -8 7 2 7 -3 12 -11 10 -9 -2 -11 3 -7 13 3 10 2 13 -5 10 -5 -4 -16 -1
-24 5 -12 10 -15 10 -15 0 0 -8 -3 -10 -6 -7 -4 4 -2 13 5 20 9 12 7 14 -11
13 -13 0 -22 4 -21 10 1 7 -7 10 -20 8 -12 -2 -16 -2 -9 2 6 3 12 10 12 15 0
6 -8 5 -20 -1 -11 -6 -19 -7 -18 -1 2 5 1 8 -2 8 -3 -1 -18 10 -34 26 -15 15
-32 24 -38 21 -6 -4 -8 -3 -5 2 3 6 -3 16 -15 23 -16 10 -19 10 -13 -1 4 -7
-5 0 -19 16 -15 17 -34 31 -44 32 -9 2 -18 8 -20 13 -5 14 -63 14 -82 0 -13
-9 -12 -10 2 -5 12 3 15 1 11 -9 -3 -8 -8 -13 -12 -11 -4 3 -7 -4 -7 -15 0
-10 4 -19 9 -19 4 0 5 -5 2 -10 -4 -6 -1 -17 5 -25 7 -8 9 -15 5 -15 -4 0 -1
-8 6 -17 10 -11 10 -14 2 -9 -7 4 -13 2 -13 -3 0 -6 6 -11 13 -11 8 0 7 -4 -3
-10 -12 -7 -12 -10 -1 -10 7 0 11 -6 8 -15 -4 -8 -1 -17 5 -21 7 -5 8 -2 3 6
-5 9 -4 11 3 6 9 -5 9 -13 2 -26 -7 -13 -7 -21 1 -26 6 -3 9 -15 6 -25 -3 -12
0 -19 9 -19 8 0 14 -5 14 -11 0 -5 -6 -7 -12 -3 -9 5 -9 3 1 -9 7 -9 11 -26 8
-37 -3 -11 -1 -18 3 -15 5 3 11 1 14 -4 4 -5 2 -12 -4 -16 -6 -4 -7 -12 -3
-18 8 -13 11 -23 15 -52 2 -11 7 -23 12 -26 4 -4 9 -33 9 -65 1 -33 6 -62 11
-66 6 -4 5 -13 -3 -22 -10 -12 -11 -16 -1 -16 7 0 10 -8 7 -20 -3 -10 0 -22 7
-25 8 -3 7 -7 -2 -11 -10 -5 -9 -11 5 -27 10 -11 12 -17 6 -13 -17 9 -17 -6 0
-23 9 -11 9 -13 0 -7 -7 4 -13 2 -13 -3 0 -6 6 -11 13 -11 7 0 8 -3 2 -8 -11
-8 -13 -31 -4 -47 4 -5 5 -18 4 -28 -2 -9 0 -15 5 -12 4 3 10 -4 13 -15 3 -11
1 -23 -4 -26 -15 -9 -10 -26 7 -20 10 4 13 2 7 -6 -12 -21 -10 -50 4 -55 12
-5 12 -7 1 -14 -11 -7 -11 -9 1 -9 11 0 11 -3 0 -16 -10 -13 -10 -17 2 -25 10
-6 10 -9 2 -9 -7 0 -13 -7 -13 -16 0 -9 -5 -12 -12 -8 -10 5 -10 4 -1 -6 12
-13 6 -43 -7 -35 -5 3 -7 -3 -5 -12 1 -10 -2 -23 -7 -30 -5 -7 -7 -17 -3 -22
4 -7 -1 -8 -11 -4 -14 5 -16 2 -12 -20 4 -23 3 -25 -9 -15 -8 6 -13 7 -12 2 4
-21 -2 -35 -11 -29 -5 3 -10 1 -10 -4 0 -6 6 -11 13 -11 7 -1 4 -6 -7 -15 -10
-7 -15 -19 -11 -25 4 -6 1 -9 -7 -8 -8 2 -13 -7 -13 -24 1 -22 -2 -25 -14 -15
-11 9 -13 9 -8 0 4 -6 1 -17 -6 -25 -14 -13 -17 -21 -17 -39 0 -5 -5 -7 -12
-3 -7 5 -9 2 -5 -9 3 -9 1 -18 -6 -21 -9 -3 -8 -8 3 -15 12 -8 12 -11 1 -11
-7 0 -11 -6 -7 -15 3 -8 0 -15 -7 -15 -8 0 -6 -4 3 -10 11 -7 11 -10 2 -10 -8
0 -10 -5 -5 -12 10 -17 11 -68 1 -68 -4 0 -8 -4 -8 -10 0 -5 7 -6 17 -3 12 5
14 3 7 -8 -13 -22 -14 -42 -1 -58 10 -12 9 -13 -2 -6 -11 6 -13 4 -8 -8 3 -10
2 -17 -3 -17 -5 0 -7 -7 -3 -16 3 -9 0 -20 -8 -25 -12 -7 -12 -9 0 -9 11 0 11
-3 0 -17 -12 -14 -12 -16 1 -9 8 4 7 1 -3 -7 -12 -10 -15 -17 -7 -22 8 -5 7
-11 -2 -22 -7 -8 -13 -27 -14 -42 -1 -14 -3 -28 -4 -31 -1 -3 -2 -9 -1 -13 1
-4 -3 -16 -8 -26 -7 -12 -6 -22 2 -30 9 -10 9 -12 -3 -9 -10 2 -14 -5 -14 -24
1 -15 -2 -25 -6 -23 -9 5 -23 -33 -20 -54 1 -7 -3 -10 -8 -7 -6 3 -13 -6 -16
-19 -4 -14 -11 -23 -15 -20 -5 3 -7 -5 -3 -17 3 -13 1 -19 -5 -15 -6 4 -18 -2
-28 -13 -10 -11 -15 -20 -11 -20 4 0 2 -9 -4 -20 -6 -11 -15 -18 -21 -15 -5 4
-9 1 -9 -5 0 -6 -5 -8 -13 -4 -8 5 -8 2 2 -9 12 -15 11 -17 -3 -17 -9 0 -16
-5 -16 -11 0 -5 -5 -7 -12 -3 -7 5 -8 3 -3 -6 5 -9 -2 -22 -21 -38 -16 -13
-22 -21 -14 -17 8 3 6 -1 -5 -10 -11 -9 -20 -21 -20 -28 0 -7 -9 -11 -19 -10
-12 1 -15 -2 -8 -9 7 -7 4 -16 -9 -29 -10 -10 -19 -26 -19 -35 0 -8 -4 -12
-10 -9 -9 5 -15 -10 -7 -18 6 -7 -29 -34 -38 -29 -5 2 -5 -1 2 -8 9 -10 7 -17
-7 -33 -11 -11 -17 -24 -14 -28 2 -4 0 -10 -6 -14 -5 -3 -10 -17 -10 -31 0
-15 -4 -23 -10 -19 -17 10 -7 -18 13 -36 9 -9 17 -21 17 -27 0 -6 8 -16 18
-21 9 -6 13 -11 9 -11 -4 0 4 -11 18 -25 14 -14 25 -30 25 -35 0 -6 6 -9 13
-7 6 1 11 -4 10 -10 -2 -7 4 -13 12 -13 8 0 15 -4 15 -8 0 -5 7 -17 16 -28 8
-10 12 -13 8 -5 -5 9 -3 12 4 7 7 -4 12 -15 12 -26 0 -10 7 -21 16 -24 15 -6
15 -4 3 11 -13 16 -12 17 3 4 10 -7 18 -20 18 -28 0 -8 5 -11 10 -8 6 3 10 -1
10 -10 0 -11 5 -15 16 -11 8 3 12 2 9 -4 -3 -6 -1 -10 5 -10 6 0 8 -4 5 -10
-3 -5 0 -10 8 -10 8 0 18 -7 21 -16 3 -8 10 -13 15 -9 6 3 8 -4 6 -15 -2 -13
0 -18 7 -14 11 7 58 -41 58 -60 0 -6 4 -5 9 3 7 11 10 9 16 -8 3 -12 10 -19
15 -16 5 3 14 -4 20 -15 6 -12 17 -19 25 -17 9 4 11 -1 9 -16 -2 -12 -2 -16 2
-9 4 8 15 3 35 -19 16 -17 29 -35 29 -40 0 -4 7 -6 15 -3 9 4 15 0 15 -10 0
-9 6 -15 13 -13 6 1 11 -4 9 -11 -1 -8 2 -11 8 -7 5 3 10 1 10 -5 0 -6 4 -9 9
-5 5 3 12 -4 16 -15 4 -11 10 -18 15 -15 5 3 17 -6 28 -20 11 -14 25 -25 31
-25 6 0 8 -7 4 -17 -4 -11 -3 -14 5 -9 7 4 12 2 12 -4 0 -6 5 -8 12 -4 6 4 8
3 5 -2 -3 -5 4 -21 15 -34 11 -14 17 -18 13 -10 -4 8 0 6 9 -4 8 -10 13 -23 9
-29 -3 -6 -1 -7 5 -3 7 4 12 1 12 -9 0 -9 5 -13 10 -10 5 3 10 1 10 -5 0 -16
26 -40 35 -32 4 4 6 2 5 -3 -5 -25 1 -56 10 -50 14 9 12 -8 -2 -24 -10 -11
-10 -13 0 -7 15 9 16 -10 2 -19 -8 -5 -8 -11 0 -20 7 -9 6 -16 -5 -25 -8 -7
-12 -16 -9 -21 3 -5 -2 -12 -11 -15 -16 -7 -40 -51 -36 -67 1 -5 -3 -6 -9 -2
-6 3 -17 -1 -26 -9 -8 -9 -12 -16 -7 -16 4 0 0 -5 -10 -11 -9 -6 -15 -14 -12
-19 3 -4 -2 -11 -11 -14 -9 -3 -14 -13 -11 -21 4 -9 1 -12 -9 -8 -7 3 -14 0
-14 -7 0 -6 -4 -8 -10 -5 -6 3 -7 -1 -4 -9 4 -11 0 -16 -11 -16 -9 0 -14 -3
-12 -7 6 -10 -19 -34 -27 -26 -3 4 -6 0 -6 -8 0 -8 -14 -23 -30 -33 -49 -29
-83 -64 -74 -78 5 -10 4 -10 -6 -1 -10 10 -21 4 -52 -29 -21 -22 -38 -37 -38
-32 0 5 -7 -2 -16 -14 -8 -12 -20 -20 -25 -17 -5 4 -9 0 -9 -7 0 -7 -15 -26
-32 -43 -18 -16 -28 -23 -23 -15 6 10 4 9 -6 -2 -9 -9 -19 -14 -23 -11 -6 6
-10 -13 -7 -31 1 -5 -6 -3 -15 5 -12 9 -15 9 -10 2 4 -7 2 -13 -3 -13 -6 0
-11 -7 -11 -16 0 -8 -5 -12 -10 -9 -5 3 -10 1 -10 -4 0 -6 -6 -10 -13 -9 -6 2
-11 -5 -11 -14 1 -10 -1 -17 -5 -17 -19 3 -50 -15 -44 -25 3 -6 3 -8 -2 -4 -4
4 -14 3 -22 -4 -7 -6 -16 -8 -19 -5 -4 3 -18 -5 -33 -19 l-26 -25 25 -20 c14
-12 19 -17 11 -13 -10 5 -12 3 -7 -5 6 -9 11 -9 21 -1 10 9 15 6 20 -11 5 -15
10 -18 15 -9 5 8 9 7 14 -5 3 -9 10 -13 16 -10 5 3 10 2 10 -3 0 -5 9 -12 21
-15 12 -3 18 -10 14 -16 -3 -7 0 -8 9 -5 9 3 16 1 16 -5 0 -6 6 -11 14 -11 8
0 16 -4 18 -10 1 -5 13 -11 26 -13 13 -2 34 -16 48 -32 13 -15 24 -22 24 -15
0 7 9 3 20 -10 11 -13 20 -19 20 -15 0 5 7 0 16 -11 8 -10 13 -13 9 -7 -4 9
-1 11 9 7 9 -3 16 -10 16 -14 0 -4 12 -15 26 -25 18 -12 24 -13 19 -4 -4 8 3
3 15 -11 12 -14 19 -19 15 -13 -4 9 -1 11 9 7 9 -3 13 -10 10 -15 -6 -11 37
-29 50 -21 5 3 6 0 2 -6 -7 -11 9 -25 34 -29 8 -1 16 -7 18 -13 2 -5 8 -8 13
-4 5 3 9 0 9 -6 0 -7 7 -10 14 -7 9 4 17 -2 21 -13 3 -11 9 -19 13 -19 19 3
33 -2 28 -10 -3 -4 6 -7 19 -6 13 2 24 0 24 -3 -1 -4 -1 -14 0 -22 1 -13 2
-13 11 0 7 11 10 11 10 2 0 -7 5 -10 12 -6 7 4 8 3 4 -5 -5 -7 4 -15 23 -22
18 -6 28 -16 24 -22 -4 -6 0 -8 10 -4 11 4 27 -3 43 -18 30 -28 38 -31 29 -13
-4 7 3 2 15 -12 12 -14 18 -18 14 -10 -4 8 4 5 18 -7 13 -13 29 -23 36 -23 6
0 17 -9 25 -21 11 -15 16 -17 20 -7 4 9 6 8 6 -4 1 -10 8 -15 19 -14 9 2 25
-6 35 -17 9 -11 17 -16 17 -12 0 5 7 0 16 -11 8 -10 13 -13 9 -6 -4 7 0 12 10
12 9 0 13 -4 10 -10 -3 -5 1 -10 9 -10 9 0 16 -5 16 -11 0 -6 9 -8 21 -4 15 5
19 4 14 -4 -4 -8 2 -10 19 -7 14 3 26 1 26 -3 0 -12 30 -9 30 3 1 6 7 0 15
-14 12 -21 14 -22 15 -6 0 13 4 16 13 9 6 -5 19 -9 27 -8 8 0 18 -4 22 -10 5
-7 14 -6 27 2 15 9 22 10 27 1 5 -7 3 -8 -6 -3 -9 5 -11 4 -6 -3 4 -7 15 -8
30 -2 12 4 29 5 36 0 7 -5 24 -4 36 0 14 6 26 5 29 0 3 -5 15 -6 28 -1 12 5
32 5 45 0 14 -5 22 -5 22 2 0 6 5 7 10 4 6 -4 8 -12 4 -18 -3 -7 1 -4 9 5 8
10 17 15 20 11 4 -3 14 0 24 8 11 9 14 10 9 2 -9 -17 6 -17 23 0 11 10 12 9 6
-3 -6 -11 -3 -10 11 2 14 12 23 15 31 7 7 -7 15 -6 26 5 12 12 17 13 20 3 4
-8 6 -8 6 0 1 6 10 9 21 6 12 -3 20 0 20 6 0 7 5 9 10 6 6 -4 18 -1 27 7 14
11 16 11 8 -2 -8 -13 -6 -13 8 -2 9 8 20 11 26 8 5 -3 12 1 15 10 5 13 9 14
20 5 11 -10 19 -7 37 11 20 21 21 21 15 3 -6 -19 -6 -19 9 -1 9 12 21 17 35
13 13 -3 23 0 27 9 3 8 11 14 18 14 7 0 16 6 18 13 4 9 6 9 6 -1 1 -8 6 -10
14 -5 25 16 40 12 23 -6 -9 -10 -13 -21 -10 -24 9 -9 -16 -38 -26 -32 -5 3 -6
-4 -3 -15 4 -15 0 -20 -13 -20 -16 0 -17 -2 -4 -10 14 -9 7 -14 -13 -11 -5 1
-7 -4 -5 -11 3 -7 -5 -21 -16 -31 -12 -10 -14 -16 -6 -12 8 4 6 -1 -4 -9 -11
-9 -16 -16 -10 -16 5 0 1 -5 -8 -11 -10 -5 -15 -16 -12 -24 4 -9 0 -15 -10
-15 -9 0 -15 -3 -14 -8 1 -4 -3 -17 -10 -28 -6 -12 -8 -25 -4 -29 4 -5 2 -5
-5 -1 -7 3 -14 -2 -18 -14 -3 -11 -10 -20 -15 -20 -4 0 -11 -11 -14 -25 -4
-14 -11 -23 -16 -20 -5 3 -7 -3 -5 -14 2 -11 -7 -27 -21 -40 -13 -11 -24 -27
-24 -34 0 -8 -9 -22 -20 -32 -12 -10 -18 -25 -16 -32 3 -7 -1 -13 -9 -13 -8 0
-12 -8 -10 -19 3 -15 -1 -18 -12 -14 -11 4 -14 2 -9 -5 4 -7 2 -12 -4 -12 -6
0 -8 -4 -5 -10 3 -5 -1 -11 -9 -11 -24 -2 -30 -4 -43 -12 -6 -4 -15 -3 -18 3
-5 8 -11 7 -21 -1 -11 -9 -14 -9 -14 1 0 9 -4 9 -17 -1 -14 -12 -15 -12 -9 -1
7 11 4 12 -10 4 -11 -5 -25 -7 -33 -4 -8 2 -11 1 -8 -4 3 -5 -13 -8 -36 -6
-32 2 -38 1 -27 -7 9 -7 10 -11 3 -11 -6 0 -15 5 -18 10 -5 8 -11 8 -19 1 -7
-6 -16 -8 -20 -4 -11 11 -46 11 -46 0 0 -6 -3 -7 -7 -4 -3 4 -13 1 -21 -6 -11
-8 -14 -8 -9 0 4 6 3 14 -3 18 -5 3 -10 1 -10 -5 0 -6 -5 -8 -10 -5 -6 3 -10
0 -10 -7 0 -9 -3 -9 -10 2 -8 12 -10 12 -10 1 0 -11 -3 -11 -17 0 -13 11 -15
11 -9 1 6 -10 -1 -12 -33 -8 -26 3 -39 1 -36 -5 8 -11 -17 -8 -26 4 -7 10 -40
-3 -34 -13 3 -5 -7 -5 -22 -1 -34 10 -56 4 -46 -12 4 -7 0 -7 -9 1 -18 14 -49
13 -60 -3 -5 -6 -8 -6 -8 2 0 12 -17 12 -38 0 -7 -5 -12 -3 -12 4 0 8 -5 7
-17 -2 -15 -12 -16 -12 -8 1 7 12 6 13 -6 4 -8 -6 -24 -10 -36 -9 -13 1 -23
-2 -23 -6 0 -5 -12 -4 -26 1 -14 6 -23 6 -20 1 3 -5 -28 -8 -69 -7 -46 1 -75
-2 -75 -9 0 -5 -5 -3 -10 5 -5 8 -10 11 -10 5 0 -5 -5 -3 -10 5 -5 8 -10 10
-10 3 0 -6 -11 -10 -25 -8 -14 1 -28 -2 -31 -7 -3 -4 -10 -6 -15 -2 -5 3 -6
10 -3 16 5 7 2 8 -7 2 -16 -10 -140 -14 -134 -4 2 4 -2 7 -10 7 -8 0 -12 -4
-9 -9 9 -13 -4 -9 -20 8 -9 9 -16 11 -16 4 0 -6 -5 -8 -12 -3 -21 12 -38 12
-38 0 0 -8 -3 -8 -9 1 -4 7 -22 14 -39 14 -17 1 -29 5 -26 10 3 4 1 8 -5 8 -5
0 -13 -5 -16 -10 -5 -8 -11 -7 -21 1 -8 6 -14 8 -14 4 0 -4 -8 -1 -17 6 -11
10 -14 10 -9 2 5 -9 0 -13 -14 -13 -14 0 -19 4 -14 13 6 8 3 8 -9 -1 -9 -8
-22 -10 -28 -6 -9 5 -10 2 -6 -10 4 -9 3 -14 -2 -11 -5 3 -12 1 -16 -5 -4 -6
-11 -7 -17 -4 -7 4 -8 2 -4 -4 4 -7 3 -12 -3 -12 -6 0 -15 -10 -22 -21 -9 -17
-8 -20 3 -13 7 4 5 -2 -5 -13 -12 -14 -15 -23 -8 -28 8 -4 8 -12 0 -27 -9 -16
-8 -19 2 -13 9 6 11 2 6 -14 -4 -18 -3 -20 9 -10 12 10 13 9 8 -4 -4 -10 7
-29 30 -53 20 -20 33 -42 29 -48 -4 -7 -2 -7 7 1 10 9 17 7 33 -8 18 -17 22
-17 37 -4 13 11 19 12 28 3 9 -9 12 -9 12 1 0 11 3 11 15 1 12 -10 15 -10 15
0 0 7 7 10 15 6 8 -3 15 0 16 7 0 7 4 3 9 -8 7 -16 9 -17 9 -3 1 17 16 19 40
4 10 -6 12 -5 7 2 -7 12 11 17 43 13 8 -2 10 2 5 11 -6 10 -5 11 7 1 12 -10
18 -10 29 0 10 9 11 9 6 0 -9 -16 10 -17 19 -2 4 6 13 8 21 5 8 -3 14 0 14 7
0 8 4 6 10 -3 7 -10 10 -11 10 -2 0 8 10 11 31 7 23 -4 29 -2 23 7 -6 9 -3 9
9 -1 9 -7 17 -9 17 -4 0 5 14 10 30 11 17 1 36 2 43 3 6 1 21 -2 31 -7 13 -5
17 -4 12 4 -3 6 -2 13 4 17 5 3 10 1 10 -5 0 -7 6 -8 18 -2 9 5 32 9 50 8 17
0 32 4 32 9 0 6 5 3 10 -5 6 -9 10 -11 10 -3 0 7 7 10 17 6 9 -4 14 -2 10 3
-3 6 12 10 39 9 33 0 44 3 44 15 0 10 3 11 8 3 9 -14 44 -12 55 2 4 6 10 5 16
-4 6 -9 10 -10 12 -2 3 7 23 13 47 14 23 1 42 5 42 9 0 4 10 6 22 4 13 -2 31
0 40 5 10 6 19 5 23 -1 5 -8 11 -7 20 0 8 7 29 14 47 17 18 3 39 10 47 16 12
9 13 9 7 0 -4 -7 -3 -13 3 -13 5 0 13 5 16 10 3 6 17 8 31 6 13 -3 24 0 24 5
0 6 8 5 20 -1 11 -6 20 -7 19 -3 -3 20 2 23 22 12 17 -9 20 -8 14 2 -6 9 -3
11 8 6 10 -4 17 -1 17 6 0 8 3 8 9 -2 7 -11 9 -11 13 0 4 12 8 12 22 0 13 -11
16 -11 14 -1 -2 7 3 15 11 18 9 3 11 0 6 -8 -6 -9 -4 -11 6 -4 22 13 58 12 63
-2 3 -8 0 -11 -10 -7 -7 3 -14 1 -14 -5 0 -6 6 -13 13 -15 7 -3 4 -6 -6 -6
-10 -1 -15 -5 -12 -11 3 -5 1 -10 -5 -10 -7 0 -9 -7 -6 -16 3 -8 2 -12 -3 -9
-5 3 -12 1 -16 -5 -3 -5 0 -10 7 -11 7 0 3 -4 -10 -10 -13 -5 -20 -13 -17 -19
3 -5 1 -10 -5 -10 -6 0 -8 -4 -5 -10 3 -5 1 -10 -6 -10 -7 0 -9 -3 -6 -6 4 -4
-1 -14 -11 -23 -9 -9 -18 -23 -20 -31 -2 -8 -8 -16 -13 -18 -5 -2 -9 -8 -9
-14 0 -6 -8 -17 -17 -25 -11 -8 -12 -11 -3 -7 13 7 13 6 0 -12 -8 -10 -17 -21
-20 -24 -3 -3 -12 -14 -20 -24 -13 -18 -13 -19 0 -12 8 4 5 -1 -8 -11 -18 -15
-20 -21 -10 -31 7 -8 9 -13 3 -12 -24 5 -35 -1 -35 -20 0 -11 -6 -23 -14 -26
-9 -3 -12 -12 -9 -21 4 -11 2 -14 -5 -9 -7 4 -12 1 -12 -9 0 -9 -4 -13 -10
-10 -6 4 -7 -1 -3 -11 4 -11 2 -15 -4 -11 -6 4 -13 0 -16 -7 -3 -8 -1 -17 6
-20 7 -4 2 -4 -9 -2 -12 2 -21 -2 -21 -8 1 -32 -4 -47 -13 -41 -5 3 -10 -1
-10 -9 0 -9 -5 -16 -11 -16 -8 0 -7 -5 1 -15 11 -13 10 -14 -3 -10 -8 4 -18 1
-23 -6 -5 -8 -3 -10 7 -4 11 7 12 6 2 -7 -7 -8 -9 -19 -5 -23 4 -5 1 -5 -5 -1
-7 4 -13 2 -13 -4 0 -6 -4 -9 -8 -6 -5 3 -9 -1 -10 -9 -1 -8 -3 -22 -4 -29 -1
-8 -6 -14 -12 -13 -6 1 -11 -8 -10 -20 0 -12 -2 -22 -5 -21 -17 2 -31 -3 -29
-9 1 -5 -3 -18 -10 -29 -6 -12 -8 -25 -4 -29 4 -5 -1 -5 -11 -2 -10 4 -16 3
-12 -2 3 -5 0 -13 -6 -16 -5 -4 -8 -14 -5 -22 3 -8 2 -12 -3 -9 -5 3 -15 -2
-22 -11 -12 -14 -12 -16 1 -9 12 6 11 4 -1 -6 -9 -7 -14 -19 -11 -27 2 -8 0
-11 -5 -8 -6 4 -16 -6 -24 -21 -8 -15 -21 -33 -29 -40 -13 -12 -13 -13 0 -6
11 6 10 2 -3 -13 -9 -11 -14 -23 -10 -28 5 -4 1 -6 -7 -3 -11 4 -16 -1 -17
-14 -2 -26 -23 -49 -36 -41 -5 3 -7 1 -3 -5 8 -13 -14 -63 -25 -57 -4 3 -11
-5 -15 -17 -4 -13 -5 -24 -3 -25 2 0 -9 -13 -24 -27 -15 -14 -25 -26 -21 -26
3 0 1 -7 -6 -15 -7 -8 -17 -12 -23 -8 -5 3 -7 1 -4 -4 8 -12 -17 -66 -25 -57
-3 3 -9 -7 -12 -21 -4 -14 -10 -24 -14 -21 -5 3 -14 -4 -21 -16 -7 -11 -8 -18
-3 -14 5 3 9 -1 9 -8 0 -8 -6 -12 -14 -9 -7 3 -13 0 -13 -7 0 -7 -10 -21 -22
-31 -13 -12 -16 -19 -7 -19 8 0 4 -6 -9 -16 -12 -8 -22 -20 -22 -27 0 -6 -10
-20 -23 -32 -13 -11 -17 -16 -10 -11 10 6 12 5 7 -7 -3 -9 -14 -19 -25 -22
-11 -4 -17 -10 -14 -15 3 -4 -2 -13 -10 -20 -8 -7 -15 -19 -15 -26 0 -8 -4
-14 -9 -14 -5 0 -13 -9 -16 -20 -4 -12 -11 -17 -18 -14 -7 4 -9 4 -5 -1 4 -4
3 -14 -3 -22 -6 -7 -8 -13 -4 -13 5 0 -2 -8 -13 -19 -12 -10 -19 -21 -15 -24
3 -4 -2 -9 -11 -13 -9 -3 -14 -10 -11 -14 3 -4 -2 -11 -11 -14 -8 -3 -13 -10
-10 -15 3 -5 -1 -11 -9 -15 -8 -3 -15 -14 -15 -24 0 -23 -44 -84 -54 -75 -4 4
-4 -1 0 -11 5 -14 4 -17 -4 -12 -7 4 -12 1 -12 -7 0 -8 -7 -20 -15 -27 -8 -7
-12 -16 -9 -21 3 -5 0 -18 -7 -30 -6 -12 -7 -19 -1 -15 5 3 13 -1 16 -10 3 -8
2 -12 -4 -9 -6 3 -10 -3 -10 -14 0 -12 5 -21 11 -21 8 0 8 -5 -1 -15 -9 -10
-9 -15 -1 -15 6 0 10 -6 9 -12 -2 -7 3 -12 10 -10 8 1 11 -2 7 -8 -3 -6 4 -23
16 -38 12 -15 19 -19 16 -9 -4 9 -2 17 3 17 9 0 14 -22 11 -43 0 -4 2 -7 6 -6
20 3 52 -14 46 -25 -4 -7 -1 -6 9 1 19 16 32 5 16 -14 -9 -11 -7 -12 15 -4 18
7 28 7 33 -1 4 -6 3 -8 -4 -4 -6 3 -13 2 -16 -2 -3 -5 6 -8 20 -8 14 1 29 8
34 16 8 13 10 13 10 0 0 -10 3 -11 8 -4 4 6 16 16 27 23 16 10 17 11 2 7 -11
-3 -15 -2 -12 4 3 6 13 10 21 10 8 0 13 6 12 13 -2 6 2 11 9 10 7 -2 10 4 6
12 -3 9 3 25 13 37 11 12 14 18 7 15 -8 -5 -11 0 -10 12 0 11 5 17 9 15 9 -6
16 9 22 46 2 14 9 24 15 22 9 -2 9 3 1 18 -9 16 -8 22 5 26 9 4 14 13 11 20
-3 8 0 14 6 14 6 0 5 6 -3 17 -10 11 -10 14 -1 9 7 -4 12 -1 12 9 0 9 4 14 9
11 5 -4 7 3 4 14 -3 11 0 20 6 20 5 0 8 7 5 15 -4 8 -1 15 6 15 10 0 9 4 0 16
-11 12 -11 15 1 12 9 -2 15 7 17 25 2 15 8 25 13 22 5 -3 6 2 2 11 -4 11 1 22
12 30 14 10 15 14 4 14 -10 1 -8 4 5 11 15 9 16 13 5 20 -11 7 -10 9 5 9 15 0
16 3 6 15 -10 12 -9 16 4 21 9 3 14 10 11 14 -3 4 2 13 9 20 8 6 13 20 11 30
-2 11 1 22 7 26 6 4 5 10 -3 15 -11 7 -10 9 4 9 10 0 15 5 12 10 -3 6 -2 10 4
10 6 0 8 7 5 15 -4 8 -1 15 6 15 6 0 8 4 5 10 -3 5 -1 10 6 10 7 0 9 3 6 7 -4
3 0 17 8 30 9 13 12 23 8 23 -5 0 -3 4 2 8 6 4 16 20 23 35 7 15 16 26 21 23
5 -4 7 3 4 14 -3 12 0 20 8 20 7 0 10 3 6 6 -3 4 1 13 9 21 8 8 12 19 9 24 -4
5 -1 9 5 9 7 0 10 7 6 15 -3 10 1 15 11 15 9 0 13 3 10 6 -4 4 3 20 14 36 12
16 19 32 16 35 -9 8 17 32 28 25 6 -3 4 1 -3 10 -10 13 -10 17 3 22 8 3 15 14
15 25 0 11 9 29 21 40 12 11 22 31 23 44 1 21 4 23 15 14 11 -9 13 -9 8 -1 -4
7 3 24 15 40 13 15 16 24 8 19 -10 -6 -9 -2 3 12 9 11 14 23 10 28 -5 4 0 5 9
2 13 -4 16 -1 13 14 -2 11 2 22 10 25 8 4 24 26 36 50 12 24 27 40 32 37 6 -4
8 0 4 10 -4 10 -1 17 5 17 6 0 8 3 5 7 -4 3 1 12 11 20 11 10 12 12 2 8 -8 -4
-6 1 4 9 11 9 16 16 11 16 -5 0 1 7 13 16 13 9 21 22 18 30 -3 9 1 14 12 14
15 0 15 2 2 10 -13 8 -12 10 4 10 13 0 17 5 13 20 -4 15 -1 20 11 18 11 -2 17
4 17 19 0 12 7 28 15 35 21 17 48 54 34 45 -6 -3 -11 0 -11 8 0 8 3 13 6 12 4
-1 18 8 31 21 21 20 22 22 5 16 -16 -5 -14 -1 8 18 27 25 37 45 15 32 -7 -5
-8 -3 -4 5 5 7 14 10 22 7 8 -3 11 0 7 11 -3 8 -2 18 4 22 19 13 54 71 48 81
-3 5 -1 10 5 10 6 0 8 5 4 13 -5 7 -1 7 12 -3 10 -8 16 -10 12 -6 -4 5 -2 16
5 24 6 9 7 13 1 9 -6 -3 -11 0 -11 8 0 8 3 14 6 13 3 0 13 0 21 1 13 1 13 2 0
11 -13 8 -13 10 2 10 11 0 15 5 12 15 -4 8 -1 15 5 15 6 0 11 7 11 15 0 8 5
15 10 15 6 0 10 7 10 16 0 8 4 12 10 9 5 -3 10 3 10 15 0 11 7 23 15 26 8 4
12 10 9 15 -3 5 0 9 6 9 6 0 8 5 5 10 -3 5 -1 10 4 10 6 0 11 7 11 15 0 8 5
15 12 15 6 0 9 3 5 6 -13 14 29 43 58 40 17 -1 36 2 43 7 6 5 12 6 12 2 0 -4
8 -1 17 6 15 12 16 12 8 -1 -8 -13 -7 -13 8 -1 9 7 17 10 17 6 0 -4 6 -2 13 4
8 6 16 8 20 5 10 -10 57 -11 57 -1 0 5 8 3 17 -4 14 -12 16 -12 8 0 -6 10 -4
13 6 9 8 -3 23 -2 34 2 11 4 26 3 34 -4 12 -9 13 -8 6 3 -6 11 -2 13 19 9 14
-3 26 -1 26 3 0 5 5 9 11 9 5 0 7 -4 4 -10 -3 -5 -2 -10 3 -10 6 0 13 7 16 15
4 13 10 14 26 5 11 -6 26 -7 33 -3 6 4 20 6 30 5 9 -2 17 0 17 5 0 4 19 7 42
7 37 -1 43 -5 42 -23 0 -11 5 -21 13 -21 12 0 17 -11 11 -26 -2 -3 8 -12 22
-19 14 -8 20 -14 13 -15 -16 0 62 -80 79 -80 10 0 9 -3 -2 -10 -13 -8 -12 -10
3 -10 9 0 17 -5 17 -11 0 -5 -6 -7 -12 -3 -9 5 -9 2 1 -9 9 -12 10 -17 2 -17
-8 0 -9 -5 -2 -17 6 -12 5 -21 -7 -31 -10 -7 -12 -11 -5 -7 11 5 14 -28 13
-154 -1 -18 5 -40 12 -49 10 -12 10 -14 1 -8 -7 4 -13 2 -13 -3 0 -6 5 -11 11
-11 8 0 7 -6 -2 -17 -10 -11 -10 -14 -1 -9 8 5 12 1 12 -11 0 -11 6 -25 13
-32 10 -11 9 -13 -3 -7 -8 4 -6 0 4 -8 15 -12 16 -16 5 -16 -11 -1 -10 -4 4
-14 19 -15 23 -31 5 -20 -7 4 -4 -2 6 -14 11 -12 16 -22 13 -22 -4 0 2 -16 13
-36 11 -19 16 -33 10 -29 -6 3 -7 0 -4 -9 3 -9 14 -16 23 -17 11 0 12 -2 3 -6
-10 -4 -10 -10 3 -29 14 -22 14 -23 -2 -17 -15 6 -16 5 -3 -9 8 -9 18 -14 21
-12 3 2 5 -7 4 -19 -1 -12 5 -28 14 -35 9 -8 10 -11 4 -7 -9 4 -11 1 -7 -9 3
-9 11 -13 17 -9 6 4 7 1 2 -7 -4 -7 -2 -16 6 -21 11 -7 11 -9 1 -9 -7 0 -10
-5 -7 -10 4 -6 10 -8 15 -5 5 3 7 -4 5 -15 -2 -11 0 -20 6 -20 5 0 9 -11 9
-25 0 -14 5 -25 11 -25 8 0 8 -5 -1 -15 -10 -12 -10 -15 0 -15 7 0 10 -8 7
-19 -3 -14 -1 -18 10 -14 13 5 13 3 3 -17 -10 -19 -10 -22 2 -17 10 3 14 -1
13 -16 -1 -12 2 -28 7 -34 6 -7 8 -19 5 -27 -3 -8 2 -17 11 -21 13 -5 14 -8 3
-14 -10 -6 -9 -10 5 -15 16 -6 16 -8 4 -16 -11 -7 -12 -10 -2 -10 7 0 10 -4 7
-10 -3 -5 -2 -10 3 -10 6 0 13 -7 16 -16 4 -10 2 -13 -7 -7 -6 4 -4 -4 6 -17
10 -14 20 -33 24 -42 3 -10 10 -18 17 -18 6 0 4 -5 -4 -10 -12 -7 -12 -10 -1
-10 7 0 11 -6 8 -15 -4 -8 -1 -17 5 -21 7 -5 8 -2 3 6 -5 8 -4 11 3 6 6 -4 9
-13 5 -21 -3 -8 0 -15 7 -15 6 0 8 -4 5 -10 -3 -5 2 -10 12 -10 12 0 14 -3 6
-8 -9 -5 -6 -12 10 -21 12 -8 19 -10 15 -6 -5 5 1 14 12 22 11 8 20 20 20 26
0 7 -4 6 -10 -3 -5 -8 -10 -10 -10 -4 0 16 25 35 35 26 5 -4 5 -1 1 6 -5 8 0
22 11 35 15 19 16 20 1 8 -25 -19 -22 -6 4 19 14 12 17 20 8 20 -8 0 -5 7 8
19 12 10 19 21 15 25 -4 3 2 13 13 22 17 14 17 15 1 10 -11 -3 -16 -2 -12 4 3
6 13 10 21 10 12 0 12 4 4 20 -8 16 -8 20 2 18 7 -2 12 5 12 14 -1 10 3 16 10
15 6 -1 10 6 10 15 -1 10 4 18 12 18 8 0 13 3 13 8 -4 21 2 32 14 26 6 -4 9
-3 4 1 -4 5 3 20 15 33 13 14 17 22 11 18 -7 -4 -13 -2 -13 3 0 6 7 11 16 11
8 0 12 5 9 10 -3 6 2 10 12 10 15 0 16 2 3 10 -13 9 -7 14 13 11 4 0 7 8 7 18
0 11 5 23 12 27 7 4 8 3 4 -4 -4 -7 -5 -12 -1 -12 3 0 10 12 15 26 6 15 14 22
22 18 7 -4 8 -3 4 4 -4 7 -2 12 3 12 6 0 11 7 11 16 0 10 6 14 14 11 10 -4 13
-1 10 8 -3 7 3 16 14 19 11 4 23 13 26 21 3 8 10 15 16 15 6 0 8 -6 4 -12 -9
-14 26 10 38 27 5 7 8 7 8 0 0 -5 4 -4 9 4 8 12 12 12 24 2 13 -10 17 -9 26 6
10 17 10 17 11 0 0 -15 3 -16 21 -6 15 8 19 8 15 0 -4 -6 0 -11 8 -11 9 0 16
-5 16 -11 0 -5 5 -7 10 -4 6 3 10 -1 10 -9 0 -9 4 -16 9 -16 5 0 11 -9 14 -20
3 -11 12 -20 20 -20 9 0 21 -13 29 -30 7 -16 16 -30 19 -30 4 0 10 -11 13 -25
4 -15 11 -23 17 -19 7 4 6 -2 -1 -16 -7 -12 -8 -20 -2 -16 5 3 16 -2 23 -11
12 -14 12 -16 -1 -9 -9 4 -8 1 3 -7 20 -16 23 -31 5 -22 -7 4 -5 0 4 -8 10 -8
15 -17 11 -20 -3 -4 -1 -7 6 -7 8 0 11 -7 7 -15 -3 -9 1 -18 9 -21 8 -4 12
-10 9 -15 -3 -5 2 -9 12 -9 13 0 14 -3 4 -15 -11 -14 -7 -19 12 -16 4 0 4 -7
1 -16 -4 -10 -2 -14 4 -10 6 4 14 0 17 -9 3 -9 2 -12 -5 -8 -14 9 12 -38 31
-53 13 -11 12 -12 -5 -7 -18 6 -17 4 3 -10 12 -10 20 -22 17 -27 -4 -5 -1 -9
5 -9 6 0 8 -4 5 -10 -3 -5 -1 -10 5 -10 6 0 8 -5 4 -12 -5 -8 -2 -9 11 -4 15
5 16 4 5 -9 -10 -12 -9 -15 6 -16 13 0 15 -2 5 -6 -10 -4 -8 -9 10 -20 13 -8
16 -12 7 -9 -16 5 -16 3 -5 -17 6 -12 18 -27 26 -33 8 -6 11 -16 8 -21 -4 -6
0 -13 8 -17 8 -3 15 -13 15 -21 0 -10 5 -13 13 -9 8 5 8 2 -2 -9 -9 -12 -10
-17 -2 -17 7 0 9 -4 6 -10 -3 -5 -1 -10 5 -10 6 0 8 -4 5 -10 -3 -5 -1 -10 4
-10 6 0 11 -9 11 -21 0 -11 5 -17 10 -14 6 3 10 0 10 -8 0 -24 27 -68 48 -81
11 -6 30 -17 43 -25 22 -13 23 -13 10 3 -8 9 -10 16 -5 15 21 -4 35 2 29 11
-3 6 -1 10 5 10 16 0 70 52 64 62 -3 4 2 8 11 8 9 0 14 4 10 9 -3 5 4 12 14
16 12 4 18 12 14 21 -3 9 2 14 17 14 15 0 20 5 17 14 -4 9 2 17 14 21 10 4 19
11 19 16 0 5 7 9 15 9 8 0 15 5 15 11 0 5 -5 7 -12 3 -7 -4 -8 -3 -4 5 4 6 12
9 17 6 5 -4 9 -1 9 4 0 6 6 10 13 9 6 -2 11 3 9 10 -1 8 2 11 8 7 5 -3 13 1
16 10 4 9 13 14 22 10 13 -5 13 -3 1 12 -9 11 -10 14 -1 9 7 -4 12 -2 12 4 0
6 5 8 10 5 6 -3 13 1 16 10 5 13 9 13 22 3 13 -11 14 -11 7 1 -6 11 -4 13 8 8
9 -3 18 -1 21 6 3 8 5 8 5 -2 1 -11 4 -11 17 0 13 10 17 10 24 -1 6 -10 12
-11 22 -4 19 15 60 16 52 1 -5 -8 -3 -8 7 1 16 14 33 16 24 2 -8 -13 1 -13 26
0 10 6 19 7 19 2 0 -12 32 -11 50 2 8 5 12 6 8 2 -10 -12 29 -39 42 -31 9 6
14 -8 11 -28 -1 -5 3 -6 9 -2 5 3 10 0 10 -7 0 -10 2 -10 9 1 7 11 10 9 15 -7
5 -14 12 -19 23 -15 12 5 14 3 8 -7 -6 -10 -4 -12 8 -7 11 4 17 1 17 -9 0 -9
6 -14 13 -11 6 2 18 -3 25 -12 11 -13 12 -13 6 -1 -4 8 3 5 15 -8 20 -21 34
-27 55 -23 5 1 6 -6 2 -15 -5 -14 -4 -15 9 -4 12 10 15 9 15 -6 0 -13 3 -15 8
-7 4 7 17 11 29 10 12 0 19 -5 16 -11 -4 -5 1 -7 10 -3 10 4 17 2 17 -5 0 -7
4 -7 14 1 11 9 16 9 21 1 4 -7 16 -10 26 -7 10 3 22 1 25 -4 3 -6 11 -5 20 2
12 10 13 9 8 -6 -6 -13 -4 -16 5 -10 8 4 17 2 22 -6 6 -10 9 -11 9 -1 0 6 5
12 11 12 5 0 8 -4 5 -8 -3 -4 8 -7 25 -6 16 1 29 -1 29 -5 0 -4 12 -8 27 -9
15 -1 30 -8 35 -15 6 -9 8 -8 8 3 1 9 6 5 15 -10 13 -22 14 -23 15 -5 0 12 3
16 8 9 4 -6 15 -10 25 -8 9 1 15 -1 13 -5 -3 -4 4 -13 16 -20 16 -10 19 -10
12 1 -5 9 -2 8 11 -2 10 -8 27 -14 38 -12 14 3 17 0 11 -10 -6 -10 -4 -10 9 1
15 12 21 9 18 -11 -1 -8 34 -2 52 8 7 5 6 0 -3 -12 -8 -10 -11 -16 -6 -12 5 4
18 3 29 -3 15 -9 18 -8 12 3 -3 7 1 4 9 -6 9 -11 16 -15 16 -10 0 6 7 11 15
11 10 0 14 -6 10 -16 -5 -12 -3 -12 13 2 11 10 22 13 28 7 5 -5 20 -10 34 -12
14 -2 31 -7 39 -12 11 -7 12 -6 6 5 -8 12 -6 12 8 0 14 -11 17 -11 17 0 0 11
2 11 9 0 8 -13 12 -13 27 0 10 8 15 9 11 2 -12 -19 24 -8 39 12 8 10 14 16 14
12 0 -4 9 2 20 13 21 21 28 46 9 35 -6 -4 -10 -1 -8 6 3 24 -1 43 -7 36 -6 -6
-34 16 -34 28 0 13 -108 114 -115 107 -3 -4 -6 -2 -5 3 5 21 0 36 -10 30 -9
-6 -14 8 -11 28 1 5 -3 6 -8 3 -5 -3 -12 1 -15 10 -4 10 -12 14 -22 10 -14 -5
-15 -4 -4 9 10 12 10 15 -3 15 -19 0 -40 33 -29 46 4 5 0 3 -8 -4 -18 -15 -38
-16 -23 -1 14 14 -44 72 -61 62 -6 -4 -4 2 4 13 8 10 11 16 7 13 -10 -9 -57
34 -57 51 0 7 -3 11 -6 7 -10 -10 -32 17 -26 33 5 13 4 13 -13 0 -11 -9 -16
-10 -11 -2 4 7 2 12 -4 12 -6 0 -9 3 -7 8 6 9 -19 33 -27 25 -3 -4 -6 1 -6 10
0 9 -5 17 -11 17 -5 0 -7 5 -4 10 3 6 -1 10 -9 10 -10 0 -16 9 -16 23 0 12 -3
17 -8 11 -5 -7 -14 -5 -27 9 -11 11 -14 17 -5 13 9 -5 8 -2 -2 7 -10 8 -18 19
-18 26 0 6 -9 11 -20 11 -11 0 -20 4 -20 10 0 5 8 7 18 4 9 -3 7 1 -6 8 -12 8
-19 17 -15 22 4 4 0 4 -9 1 -14 -5 -16 -2 -13 15 4 19 2 20 -12 8 -9 -7 -14
-8 -10 -2 4 7 0 17 -9 24 -8 7 -13 19 -10 25 2 7 -3 12 -12 11 -10 -1 -16 6
-16 16 1 10 -2 15 -7 12 -5 -3 -12 2 -15 10 -3 9 -11 13 -17 9 -6 -4 -8 0 -4
10 4 10 1 17 -6 17 -7 0 -17 10 -22 22 -6 13 -16 22 -22 21 -6 -1 -10 10 -9
26 1 16 -3 28 -11 28 -6 0 -9 -5 -6 -10 3 -6 1 -7 -5 -3 -6 4 -9 13 -5 21 3 8
0 15 -6 15 -6 0 -11 9 -11 20 0 12 -7 20 -17 20 -14 0 -15 2 -5 9 11 6 10 10
-3 15 -11 4 -15 12 -11 22 5 12 2 15 -11 10 -15 -6 -16 -5 -5 5 13 14 17 33 4
25 -5 -3 -9 1 -9 9 0 8 4 12 9 9 4 -3 8 -1 8 5 0 5 -4 13 -10 16 -5 3 -10 11
-10 16 0 6 5 7 12 3 7 -4 8 -3 4 4 -13 21 -16 53 -4 46 6 -4 9 -1 6 7 -3 8 2
19 11 26 10 8 11 12 4 13 -7 0 -10 7 -7 15 4 8 10 13 14 10 5 -3 12 0 16 6 4
8 3 9 -4 5 -16 -10 -14 5 3 28 8 10 12 23 8 29 -3 6 -1 7 5 3 7 -4 12 -1 12 7
0 19 34 49 45 40 4 -5 5 1 1 11 -5 16 -4 17 9 6 13 -11 14 -10 10 3 -4 10 1
18 15 22 15 5 19 12 15 23 -5 13 -4 14 6 5 10 -10 16 -8 28 6 15 16 43 31 57
30 3 0 14 9 23 20 10 12 32 24 50 27 17 4 31 12 31 19 0 7 10 11 25 10 14 -2
23 1 19 6 -3 5 2 9 10 9 9 0 16 5 16 11 0 5 5 7 10 4 6 -3 10 -2 10 3 0 6 8 9
18 8 9 0 16 4 15 11 -2 8 4 10 14 6 9 -4 21 1 29 12 10 13 14 14 14 5 0 -9 4
-8 13 5 8 10 19 15 24 12 6 -4 13 0 16 8 4 8 15 12 27 10 11 -2 18 0 15 4 -2
5 2 14 9 20 11 9 16 9 22 0 5 -9 10 -8 19 4 7 9 23 18 36 19 13 2 30 10 37 18
12 13 13 13 6 0 -6 -12 -2 -11 19 3 15 10 33 15 39 11 7 -4 8 -3 4 4 -5 8 1
12 14 12 13 0 19 4 14 11 -4 8 0 8 15 0 17 -10 20 -9 15 4 -5 11 -2 13 10 9 9
-3 16 -1 16 5 0 6 5 11 11 11 5 0 7 -6 3 -12 -5 -9 -3 -9 9 1 9 7 15 17 12 21
-3 5 5 6 17 2 16 -4 19 -2 13 9 -8 12 -6 12 9 0 15 -13 18 -12 23 8 5 20 6 20
20 4 8 -10 12 -12 8 -5 -4 7 1 15 12 18 10 3 26 9 35 14 9 5 26 7 37 5 14 -2
19 0 15 7 -5 7 2 9 19 6 15 -3 24 -1 21 3 -3 5 7 9 21 9 18 0 24 4 19 12 -5 8
0 7 11 -2 15 -12 17 -12 10 -1 -6 11 -4 13 8 8 10 -4 17 -2 17 5 0 7 4 7 14
-1 10 -9 16 -8 26 4 7 8 16 12 21 9 5 -3 9 -1 9 5 0 6 7 8 15 5 8 -4 15 -1 15
7 0 7 3 9 7 6 3 -4 13 -1 21 6 11 8 13 8 9 0 -5 -7 0 -9 13 -6 11 3 18 9 15
13 -2 4 8 7 23 8 43 0 48 2 32 12 -12 7 -10 9 7 7 12 0 20 -4 18 -7 -2 -3 5
-6 15 -6 11 0 16 5 12 15 -3 8 -1 12 4 8 6 -3 16 -2 24 3 9 5 20 4 28 -2 10
-9 12 -8 10 2 -2 7 3 15 11 18 9 3 11 0 7 -9 -4 -8 0 -5 9 6 18 22 24 23 36 3
7 -10 9 -9 9 4 0 9 5 20 12 24 7 4 8 3 4 -4 -4 -7 -1 -12 8 -12 9 0 16 5 16
11 0 5 5 7 10 4 6 -3 10 -1 10 6 0 10 3 10 12 1 9 -9 16 -8 32 6 11 9 17 12
13 6 -3 -6 0 -11 8 -11 8 0 12 4 9 9 -3 4 0 8 6 8 6 0 8 5 4 13 -5 8 -2 8 9
-2 12 -9 17 -10 17 -2 0 7 4 10 9 7 15 -9 42 5 34 18 -4 6 1 5 10 -3 12 -9 17
-10 17 -2 0 7 4 10 9 6 5 -3 12 -1 16 5 4 6 10 8 15 5 12 -7 41 6 34 16 -3 5
2 6 11 2 10 -3 21 0 26 8 7 12 9 12 9 0 0 -9 7 -6 20 9 11 13 20 19 20 14 0
-6 -6 -16 -12 -24 -7 -8 -1 -5 13 8 14 12 33 22 42 22 9 0 19 5 23 12 5 7 3 8
-6 3 -10 -6 -12 -4 -7 9 4 10 3 15 -3 11 -6 -3 -10 1 -10 9 0 9 -7 16 -16 16
-9 0 -12 5 -8 12 5 7 0 9 -14 6 -15 -4 -19 -2 -15 8 3 9 -2 14 -17 14 -11 0
-19 4 -16 8 2 4 1 14 -5 22 -8 13 -9 13 -9 0 0 -10 -5 -7 -16 8 -8 12 -24 22
-35 22 -11 0 -22 6 -25 14 -3 9 -12 12 -22 9 -11 -5 -14 -2 -9 9 4 12 1 14
-14 11 -11 -3 -19 0 -19 8 0 7 -3 10 -6 6 -4 -3 -13 1 -21 9 -12 12 -18 12
-31 2 -9 -8 -13 -8 -9 -2 4 7 -1 18 -10 25 -14 12 -16 12 -8 -1 8 -13 6 -13
-8 -1 -9 7 -14 18 -11 23 4 6 -4 5 -16 -2 -15 -8 -20 -8 -16 -1 7 11 -6 15
-33 12 -7 -2 -10 2 -6 8 3 6 -1 11 -10 11 -9 0 -14 3 -12 7 3 5 -7 9 -21 10
-15 0 -28 6 -30 12 -2 6 -15 11 -28 11 -14 0 -24 6 -24 15 0 9 -6 12 -17 8
-12 -5 -14 -3 -8 8 7 12 6 12 -11 -1 -10 -8 -16 -11 -12 -6 10 11 -33 45 -49
39 -7 -3 -13 0 -13 6 0 6 -9 11 -21 11 -11 0 -17 4 -14 10 4 6 -1 7 -11 3 -11
-4 -15 -2 -11 4 4 6 -3 9 -18 8 -16 -2 -22 1 -19 10 4 10 -1 12 -17 8 -17 -5
-20 -3 -14 7 6 10 4 12 -8 7 -9 -3 -18 1 -21 10 -4 8 -13 13 -21 9 -8 -3 -15
0 -15 6 0 6 -3 9 -6 5 -4 -3 -15 4 -25 16 -18 20 -19 21 -13 2 5 -19 5 -19 -9
-2 -8 9 -22 17 -31 17 -9 0 -16 8 -16 18 0 13 -2 14 -9 3 -6 -9 -11 -10 -15
-2 -4 6 -12 8 -18 5 -7 -5 -9 -2 -5 8 4 12 1 14 -15 10 -16 -4 -19 -2 -13 8 6
10 4 12 -8 7 -10 -3 -17 -2 -17 4 0 6 -4 7 -10 4 -5 -3 -10 -1 -10 4 0 6 -5
11 -11 11 -5 0 -7 -5 -3 -12 4 -7 3 -8 -5 -4 -6 4 -9 11 -6 16 7 11 -21 21
-40 14 -9 -4 -15 0 -15 10 0 10 -8 16 -22 16 -12 0 -18 3 -15 7 4 3 2 12 -4
20 -9 10 -8 13 0 13 7 0 9 5 5 12 -5 8 -2 9 9 5 10 -4 16 -2 14 6 -1 7 4 11
12 9 12 -3 12 -1 1 15 -8 10 -11 15 -6 11 4 -3 26 11 48 33 22 21 45 36 51 32
6 -4 8 0 4 10 -4 11 -1 17 9 17 9 0 12 5 8 12 -5 7 -2 9 9 5 9 -3 18 0 21 9 3
9 11 12 18 8 8 -5 9 -2 5 10 -5 14 -3 15 13 6 16 -9 18 -8 13 6 -4 11 -2 15 4
11 6 -4 19 0 27 9 12 11 16 12 16 2 1 -7 6 -4 13 8 7 12 17 19 24 17 7 -2 18
5 25 16 10 16 15 18 28 8 8 -6 12 -8 8 -3 -10 12 15 34 31 28 10 -4 13 -1 9
10 -5 11 0 14 18 12 13 -1 27 3 31 8 3 7 1 8 -5 4 -7 -4 -12 -5 -12 -2 0 10
82 46 92 40 4 -3 7 0 6 8 -2 7 3 12 10 10 7 -1 15 5 19 14 5 13 7 13 14 2 7
-10 9 -9 9 5 0 10 4 16 9 12 6 -3 20 5 32 17 12 13 18 16 14 8 -8 -13 -7 -13
11 0 10 8 23 21 27 28 7 11 11 11 25 0 9 -7 13 -8 9 -2 -5 9 36 41 56 43 13 1
39 17 38 24 -2 16 0 17 19 7 16 -8 20 -8 20 4 0 18 27 29 34 13 2 -7 5 -5 5 4
1 9 8 20 17 23 10 4 13 2 9 -7 -4 -6 1 -3 10 8 9 11 17 18 18 16 1 -2 12 -1
25 3 15 5 21 13 18 22 -3 9 1 14 12 15 9 0 12 3 5 5 -7 3 -9 12 -6 20 3 7 -2
17 -11 20 -9 3 -16 10 -16 16 0 5 5 6 12 2 7 -4 8 -3 4 5 -6 9 -11 9 -24 -1
-9 -8 -13 -8 -9 -1 10 16 -2 43 -19 43 -8 0 -14 5 -14 10 0 6 -7 10 -15 10 -8
0 -15 6 -15 14 0 8 -9 12 -26 10 -14 -1 -23 0 -20 4 8 8 -46 42 -56 36 -4 -3
-8 0 -8 6 0 6 -4 9 -9 5 -5 -3 -12 -1 -16 5 -4 6 -11 8 -16 5 -5 -4 -9 0 -9 7
0 9 -3 9 -10 -2 -7 -11 -10 -11 -10 -2 0 7 -4 11 -9 8 -5 -3 -14 1 -21 9 -7 8
-18 15 -24 15 -6 0 -4 -5 4 -10 13 -8 12 -10 -2 -10 -10 0 -18 5 -18 11 0 6
-6 9 -12 6 -7 -2 -19 3 -26 12 -8 9 -10 10 -7 3 5 -10 2 -13 -11 -10 -11 2
-18 10 -16 17 1 7 -2 10 -8 6 -6 -4 -18 -1 -27 7 -12 9 -15 9 -9 1 4 -7 2 -13
-3 -13 -6 0 -11 5 -11 11 0 6 -9 9 -20 6 -11 -3 -20 -1 -20 3 0 5 -12 7 -26 4
-19 -3 -24 -1 -19 8 4 7 0 5 -8 -4 -8 -10 -17 -15 -21 -11 -4 4 -11 1 -16 -7
-9 -13 -10 -13 -10 0 -1 12 -3 11 -14 -3 -9 -12 -16 -14 -21 -8 -4 8 -12 8
-27 0 -18 -10 -20 -9 -14 7 7 17 6 17 -13 0 -14 -13 -21 -14 -27 -5 -5 8 -3
10 6 4 9 -6 11 -4 6 4 -5 7 -14 10 -22 7 -8 -3 -14 -1 -14 5 0 6 -7 9 -14 6
-9 -4 -17 2 -21 14 -4 10 -9 17 -13 15 -4 -2 -13 2 -20 10 -7 8 -9 14 -5 15 4
0 -3 5 -17 11 -14 6 -29 10 -35 9 -5 -1 -1 6 10 15 16 14 17 16 3 11 -10 -4
-18 -2 -18 3 0 5 -7 7 -15 4 -11 -5 -13 -2 -8 12 4 12 3 15 -5 10 -7 -4 -15 0
-19 11 -3 10 -26 37 -50 61 -24 23 -41 42 -38 42 3 0 -6 11 -20 25 -14 14 -25
29 -25 33 0 4 -15 7 -32 7 -18 0 -41 3 -50 8 -12 5 -18 4 -18 -4 0 -9 -3 -9
-14 0 -10 9 -16 9 -21 1 -5 -8 -10 -8 -20 0 -10 8 -15 8 -21 -1 -5 -9 -10 -7
-15 7 -7 17 -8 17 -8 2 -1 -19 -21 -20 -33 -3 -5 6 -8 4 -8 -5 -1 -11 -4 -10
-15 4 -8 11 -15 15 -15 9 0 -6 -13 -10 -30 -9 -16 0 -30 5 -30 10 0 4 -7 3
-15 -4 -12 -10 -15 -10 -15 0 0 10 -3 10 -14 1 -10 -8 -16 -9 -21 -1 -4 6 -12
10 -18 9 -28 -3 -58 2 -53 9 5 8 -2 9 -60 14 -17 2 -38 9 -47 17 -14 11 -17
11 -17 0 0 -10 -3 -10 -11 -2 -6 6 -18 9 -27 6 -9 -4 -13 -2 -9 4 5 7 -1 9
-15 5 -13 -3 -19 -1 -15 5 4 6 -3 8 -18 5 -15 -2 -25 0 -25 7 0 7 -4 9 -10 6
-5 -3 -10 -1 -10 5 0 7 -7 10 -15 6 -8 -3 -15 -1 -15 4 0 6 -9 10 -21 10 -11
0 -18 4 -15 9 4 5 -5 8 -19 6 -14 -1 -28 2 -32 8 -4 6 -1 7 7 2 9 -5 11 -4 6
4 -4 6 -19 9 -32 7 -23 -4 -24 -3 -13 12 8 9 10 14 5 10 -10 -9 -66 19 -66 32
0 6 -9 10 -21 10 -11 0 -17 5 -14 10 3 6 1 10 -4 10 -6 0 -11 7 -11 15 0 9 -6
18 -14 21 -8 3 -12 12 -9 20 3 8 0 14 -7 14 -6 0 -8 5 -5 10 4 6 1 18 -7 27
-11 15 -11 16 7 9 16 -6 18 -5 8 5 -7 7 -13 17 -13 22 0 4 6 5 13 1 8 -5 8 -2
-2 9 -11 14 -11 20 0 34 12 14 12 16 -1 9 -8 -4 -6 0 4 8 18 14 18 16 3 16
-14 0 -15 3 -5 19 7 11 15 18 19 15 4 -2 5 4 2 15 -3 11 2 21 13 25 16 6 16 8
4 16 -12 8 -9 10 10 10 18 0 21 3 12 9 -11 7 -10 9 3 15 9 3 13 10 10 16 -3 6
1 13 9 16 9 3 13 10 10 15 -3 5 0 9 5 9 6 0 11 7 11 16 0 8 4 13 9 10 5 -3 11
4 14 15 4 13 10 18 18 13 7 -4 10 -3 5 4 -3 6 3 16 14 22 11 6 19 16 17 23 -1
7 4 11 11 9 6 -1 11 4 10 10 -2 7 2 12 9 11 7 -2 10 6 8 18 -4 18 -2 19 11 8
8 -7 14 -8 13 -3 -4 18 13 43 27 37 10 -4 12 0 7 13 -4 12 -3 15 5 10 7 -4 12
-2 12 3 0 6 5 11 10 11 6 0 26 16 46 35 19 19 39 35 45 35 6 0 8 7 5 16 -3 8
-2 13 2 10 5 -3 21 3 36 13 19 13 24 20 14 24 -8 4 -7 6 6 6 12 1 16 6 12 16
-3 8 -2 14 2 14 19 -3 33 2 27 10 -3 5 4 12 14 16 11 3 18 12 15 19 -3 8 4 16
16 19 12 3 19 10 15 16 -3 6 -1 11 5 11 6 0 8 4 5 10 -4 6 1 7 11 3 12 -4 15
-3 10 5 -4 7 -2 12 5 12 7 0 9 3 6 7 -4 3 0 11 8 17 7 6 15 18 17 26 2 8 9 21
16 28 10 11 10 17 1 28 -6 8 -8 14 -3 14 5 0 2 5 -6 10 -9 6 -11 10 -3 10 7 0
10 7 7 15 -4 8 -10 13 -14 10 -5 -3 -6 4 -3 15 3 11 0 20 -6 20 -6 0 -11 9
-11 20 0 11 -6 20 -12 20 -9 0 -8 4 2 10 10 6 11 10 3 10 -7 0 -13 7 -13 15 0
8 -5 15 -11 15 -8 0 -8 5 1 15 10 12 10 15 -2 15 -10 0 -13 10 -12 30 1 17 -3
30 -8 30 -6 0 -4 8 3 17 10 11 10 14 2 9 -7 -4 -13 -2 -13 3 0 6 6 11 13 11 9
0 9 2 0 8 -16 10 -20 77 -5 95 10 11 9 17 -3 27 -13 11 -13 15 -3 21 10 7 10
9 1 9 -7 0 -13 5 -13 11 0 5 5 7 12 3 7 -5 8 -3 3 5 -4 7 -8 30 -9 50 -1 30 2
37 14 33 8 -3 4 5 -10 17 -16 14 -19 21 -8 17 14 -4 15 0 8 26 -8 27 -8 29 8
17 16 -13 16 -12 0 6 -12 15 -14 25 -7 38 8 13 6 17 -6 17 -8 0 -15 5 -15 11
0 5 4 8 9 5 5 -3 11 1 15 9 3 8 1 17 -4 20 -5 3 -7 12 -3 20 3 8 1 15 -5 15
-5 0 -13 7 -16 16 -3 8 -2 12 4 9 16 -10 12 12 -5 28 -11 12 -12 17 -2 20 9 4
9 6 -1 6 -7 1 -10 6 -7 11 3 6 2 10 -3 10 -6 0 -8 9 -5 20 3 13 0 20 -8 20
-11 0 -11 2 1 10 12 8 12 10 -5 10 -17 0 -17 2 -5 10 13 8 12 10 -4 10 -15 0
-16 3 -6 15 10 12 10 15 -1 15 -12 0 -12 2 -1 9 11 7 10 9 -3 15 -9 3 -13 10
-10 16 3 5 0 10 -7 10 -9 0 -9 3 2 10 12 8 12 10 1 10 -8 0 -11 7 -8 20 3 11
1 18 -3 15 -5 -3 -12 0 -16 6 -3 6 0 15 7 20 11 7 11 9 -3 9 -9 0 -20 5 -24
12 -4 7 -3 8 4 4 7 -4 12 -2 12 3 0 6 -4 11 -10 11 -5 0 -9 3 -9 8 4 21 -2 32
-13 26 -8 -5 -8 -2 1 10 8 9 10 16 5 14 -5 -2 -11 2 -12 7 -2 6 -8 16 -14 22
-6 7 -8 19 -5 27 7 17 -26 49 -38 39 -5 -5 -4 -1 3 9 8 10 9 17 3 20 -6 1 -12
13 -14 26 -2 13 -9 27 -16 31 -7 4 -11 14 -9 22 2 8 -2 13 -8 12 -8 -1 -10 6
-6 19 3 14 1 19 -6 14 -11 -7 -16 12 -15 51 1 7 -3 10 -8 7 -8 -5 -13 9 -10
29 0 4 -6 7 -14 7 -9 0 -12 6 -9 15 4 8 1 15 -6 15 -9 0 -9 4 1 17 10 11 10
14 2 9 -8 -4 -13 -1 -13 9 0 9 -5 13 -10 10 -13 -8 -9 17 5 28 6 5 3 7 -7 4
-17 -6 -43 15 -31 26 3 4 1 13 -5 20 -7 8 -9 17 -5 20 3 4 -2 7 -12 7 -14 0
-15 3 -5 15 10 12 10 15 0 15 -7 0 -10 7 -7 14 4 10 1 13 -9 9 -10 -4 -14 2
-14 21 0 18 -6 26 -17 27 -10 0 -13 3 -6 5 7 3 9 12 6 20 -3 7 -10 11 -16 7
-6 -4 -8 0 -4 10 4 11 1 17 -7 17 -8 0 -12 11 -11 29 1 22 -2 28 -13 23 -11
-4 -14 -1 -9 11 3 9 2 17 -4 17 -6 0 -7 5 -4 10 3 6 1 10 -6 10 -6 0 -9 8 -6
20 3 10 2 19 -2 18 -3 0 -13 0 -21 1 -13 1 -13 2 0 11 12 8 12 10 -3 16 -15 5
-15 9 -5 22 10 12 10 14 1 8 -8 -4 -13 -1 -13 8 0 9 -4 16 -10 16 -5 0 -10 9
-10 20 0 12 -7 20 -17 20 -15 0 -16 2 -3 10 13 9 8 14 -11 12 -4 -1 -5 8 -2
18 4 14 0 20 -11 20 -9 0 -15 6 -13 13 1 6 -6 11 -16 10 -12 0 -16 4 -13 13 3
8 3 14 0 14 -2 0 -7 -7 -9 -15z m510 -965 c3 -5 1 -10 -4 -10 -6 0 -11 5 -11
10 0 6 2 10 4 10 3 0 8 -4 11 -10z m195 -874 c0 -11 -19 -15 -25 -6 -3 5 1 10
9 10 9 0 16 -2 16 -4z m-5430 -520 c0 -2 -7 -7 -16 -10 -8 -3 -12 -2 -9 4 6
10 25 14 25 6z m6005 -1326 c3 -6 -1 -7 -9 -4 -18 7 -21 14 -7 14 6 0 13 -4
16 -10z m-6205 -924 c0 -2 -7 -7 -16 -10 -8 -3 -12 -2 -9 4 6 10 25 14 25 6z
m2371 -632 c3 4 9 -83 11 -176 0 -16 5 -28 12 -28 6 0 6 -4 -3 -9 -9 -6 -10
-11 -2 -15 6 -4 11 -12 11 -17 0 -6 -4 -8 -8 -5 -9 6 -9 -24 0 -39 7 -13 4
-47 -7 -64 -5 -9 -4 -12 2 -8 5 4 10 -12 10 -38 1 -31 -3 -43 -11 -39 -6 3 -3
-1 6 -9 14 -11 15 -16 5 -26 -9 -10 -9 -12 3 -9 10 2 14 -3 12 -14 -2 -10 2
-18 8 -18 5 0 9 -3 9 -7 -1 -5 0 -10 1 -13 7 -18 7 -39 0 -35 -5 3 -16 -2 -24
-11 -9 -8 -16 -11 -16 -5 0 6 -7 8 -15 5 -8 -4 -13 -9 -11 -13 3 -4 -4 -7 -14
-7 -10 0 -17 3 -15 6 2 4 -2 7 -10 7 -8 0 -12 -4 -9 -8 2 -4 0 -10 -6 -14 -5
-3 -10 -1 -10 4 0 6 -5 11 -11 11 -5 0 -8 -4 -5 -8 3 -5 -1 -9 -9 -9 -8 0 -15
5 -15 11 0 6 -4 5 -9 -3 -5 -8 -16 -11 -25 -8 -9 4 -16 1 -16 -6 0 -8 -4 -6
-10 3 -5 8 -10 10 -10 5 0 -6 -12 -10 -27 -10 -16 1 -34 -4 -42 -9 -11 -8 -13
-8 -7 2 9 15 -6 16 -22 0 -9 -9 -12 -9 -12 2 0 9 -5 8 -15 -6 -15 -19 -15 -19
-8 1 6 19 6 19 -14 2 -11 -9 -23 -14 -27 -10 -4 4 -11 1 -16 -7 -8 -12 -10
-12 -16 3 -3 9 -10 15 -14 12 -4 -3 -10 2 -14 10 -3 8 0 14 7 12 7 -1 11 4 9
11 -1 6 6 12 15 13 10 0 13 3 6 6 -10 3 -10 7 0 18 7 7 17 10 22 7 6 -3 4 2
-4 12 -12 15 -12 17 0 14 8 -2 13 3 11 10 -1 6 2 12 8 12 6 0 9 3 9 8 -3 19 2
33 10 28 9 -6 26 22 22 37 0 4 6 10 15 14 13 5 13 7 2 14 -10 7 -8 9 6 9 12 0
16 5 12 15 -3 8 0 14 7 12 7 -1 11 4 9 12 -2 9 3 11 14 7 14 -5 15 -4 4 9 -12
14 -6 20 21 17 3 -1 6 5 6 13 0 8 -4 12 -9 9 -4 -3 -5 2 -2 10 3 9 10 13 15
10 5 -3 9 2 9 10 0 9 5 16 12 16 6 0 8 3 5 7 -4 3 0 11 9 17 8 6 16 21 17 33
0 12 5 19 9 17 4 -3 8 0 8 5 0 6 8 11 18 12 16 0 16 1 -1 7 -16 7 -16 9 3 25
11 9 20 23 20 31 0 7 9 16 20 19 13 3 18 11 14 20 -3 8 0 18 5 22 6 3 8 11 5
17 -4 7 -2 8 4 4 11 -7 17 6 13 28 -1 5 4 4 12 -2 8 -7 16 -10 18 -8z m-1476
-2484 c-3 -5 -12 -10 -18 -10 -7 0 -6 4 3 10 19 12 23 12 15 0z"/>
<path d="M5235 990 c-3 -5 -1 -10 4 -10 6 0 11 5 11 10 0 6 -2 10 -4 10 -3 0
-8 -4 -11 -10z"/>
<path d="M1485 789 c-4 -6 -5 -12 -2 -15 2 -3 7 2 10 11 7 17 1 20 -8 4z"/>
</g>
</svg>
